<?xml version="1.0" standalone="no"?>
<!DOCTYPE svg PUBLIC "-//W3C//DTD SVG 20010904//EN"
 "http://www.w3.org/TR/2001/REC-SVG-20010904/DTD/svg10.dtd">
<svg version="1.0" xmlns="http://www.w3.org/2000/svg"
 width="700.000000pt" height="700.000000pt" viewBox="0 0 700.000000 700.000000"
 preserveAspectRatio="xMidYMid meet">
<metadata>
Created by potrace 1.14, written by Peter Selinger 2001-2017
</metadata>
<g transform="translate(0.000000,700.000000) scale(0.100000,-0.100000)"
fill="#000000" stroke="none">
<path d="M3750 6654 c-252 -55 -459 -187 -605 -385 -80 -108 -154 -276 -171
-384 -3 -22 -9 -58 -13 -80 -4 -22 -7 -80 -6 -130 2 -78 5 -116 20 -195 18
-97 85 -250 152 -350 53 -78 179 -203 260 -258 246 -166 563 -211 853 -120
315 100 560 361 652 695 32 117 32 364 -1 483 -26 96 -79 216 -136 305 -37 58
-163 191 -235 248 -55 44 -247 134 -335 158 -103 27 -337 34 -435 13z"/>
<path d="M1673 6229 c-348 -32 -636 -312 -681 -661 -9 -68 -8 -171 1 -218 17
-85 32 -131 61 -196 125 -270 379 -440 670 -448 302 -9 568 149 708 419 200
387 22 877 -383 1047 -123 51 -240 69 -376 57z"/>
<path d="M1067 4484 c-1 -1 -32 -4 -68 -8 -67 -6 -186 -41 -249 -73 -181 -93
-318 -255 -388 -458 l-27 -80 -3 -875 c-2 -760 -1 -885 13 -952 46 -229 198
-429 403 -532 168 -84 165 -84 1060 -82 419 0 762 -2 762 -5 0 -3 -200 -206
-445 -450 -245 -244 -452 -455 -461 -467 -54 -81 13 -186 108 -168 28 5 120
92 548 521 283 283 518 515 523 515 4 0 233 -226 510 -502 276 -277 514 -511
529 -521 89 -57 195 39 150 136 -7 15 -218 232 -468 482 l-455 455 53 1 c29 0
388 1 798 2 689 2 750 4 815 21 263 70 468 263 550 521 15 45 19 67 30 150 2
17 4 98 4 182 l1 152 588 -295 c538 -271 590 -295 627 -290 28 3 48 14 68 36
l27 30 0 1021 c0 930 -1 1022 -16 1045 -22 33 -61 52 -99 48 -16 -1 -291 -133
-610 -293 -319 -159 -581 -289 -582 -288 -1 2 -3 79 -4 172 -2 187 -15 267
-58 372 -76 185 -209 323 -393 407 -161 74 -15 69 -2031 70 -995 1 -1809 1
-1810 0z"/>
</g>
</svg>
